# Blender v2.82 (sub 7) OBJ File: 'triangle_fold.blend'
# www.blender.org
mtllib half_new.mtl
v 0.500000 0.510261 0.137500
v 0.625000 0.510261 0.137500
v 0.625000 0.510261 0.262500
v 1.000000 0.510261 0.137500
v 0.875000 0.510261 0.137500
v 0.875000 0.510261 0.012500
v 1.000000 0.462308 -0.003892
v 1.000000 0.502674 0.000000
v 0.875000 0.462308 -0.003892
v 0.375000 0.510261 0.137500
v 0.375000 0.510261 0.012500
v 0.250000 0.502674 0.000000
v 0.375000 0.502674 0.000000
v 0.000000 0.502674 0.000000
v 0.125000 0.502674 0.000000
v 0.125000 0.510261 0.012500
v 0.000000 0.510261 0.012500
v 0.875000 0.462308 0.121108
v 0.750000 0.462308 0.121108
v 0.875000 0.462308 0.246108
v 0.250000 0.510261 0.012500
v 0.000000 0.510261 0.137500
v 0.125000 0.510261 0.137500
v 0.125000 0.510261 0.262500
v 1.000000 0.510261 0.262500
v 1.000000 0.510261 0.387500
v 0.875000 0.510261 0.262500
v 0.750000 0.462308 -0.003892
v 0.750000 0.510261 0.262500
v 0.750000 0.510261 0.137500
v 1.000000 0.462308 0.371108
v 1.000000 0.462308 0.246108
v 0.750000 0.462308 0.246108
v 0.625000 0.462308 0.246108
v 0.250000 0.510261 0.137500
v 0.000000 0.462308 0.121108
v 0.125000 0.462308 0.121108
v 0.125000 0.462308 -0.003892
v 0.000000 0.510261 0.262500
v 0.250000 0.462308 -0.003892
v 0.250000 0.462308 0.121108
v 0.375000 0.462308 -0.003892
v 0.625000 0.510261 0.387500
v 0.500000 0.510261 0.387500
v 0.500000 0.462308 0.121108
v 0.500000 0.462308 -0.003892
v 0.250000 0.462308 0.371108
v 0.250000 0.462308 0.246108
v 0.125000 0.462308 0.246108
v 0.750000 0.502674 0.000000
v 0.750000 0.510261 0.012500
v 0.625000 0.510261 0.012500
v 0.125000 0.462308 0.371108
v 0.000000 0.462308 0.246108
v 0.000000 0.462308 0.371108
v 0.750000 0.510261 0.387500
v 0.625000 0.462308 0.121108
v 0.625000 0.462308 -0.003892
v 1.000000 0.462308 0.121108
v 0.125000 0.510261 0.387500
v 0.000000 0.510261 0.387500
v 0.500000 0.510261 0.012500
v 0.500000 0.502674 0.000000
v 0.500000 0.462308 0.246108
v 0.375000 0.462308 0.246108
v 0.500000 0.462308 0.371108
v 0.875000 0.462308 0.371108
v 0.625000 0.462308 0.371108
v 0.750000 0.462308 0.371108
v 0.000000 0.462308 -0.003892
v 1.000000 0.510261 0.012500
v 0.875000 0.510261 0.387500
v 0.500000 0.510261 0.262500
v 0.250000 0.510261 0.387500
v 0.250000 0.510261 0.262500
v 0.375000 0.510261 0.262500
v 0.625000 0.502674 0.000000
v 0.375000 0.510261 0.387500
v 0.375000 0.462308 0.121108
v 0.375000 0.462308 0.371108
v 0.875000 0.502674 0.000000
vt 0.250000 0.500000
vt 0.250000 0.625000
vt 0.125000 0.625000
vt 0.250000 1.000000
vt 0.250000 0.875000
vt 0.375000 0.875000
vt 0.625000 1.000000
vt 0.500000 1.000000
vt 0.625000 0.875000
vt 0.250000 0.375000
vt 0.375000 0.375000
vt 0.500000 0.250000
vt 0.500000 0.375000
vt 0.500000 0.000000
vt 0.500000 0.125000
vt 0.375000 0.125000
vt 0.375000 0.000000
vt 0.750000 0.875000
vt 0.750000 0.750000
vt 0.875000 0.875000
vt 0.375000 0.250000
vt 0.250000 0.000000
vt 0.250000 0.125000
vt 0.125000 0.125000
vt 0.125000 1.000000
vt 0.000000 1.000000
vt 0.125000 0.875000
vt 0.625000 0.750000
vt 0.125000 0.750000
vt 0.250000 0.750000
vt 1.000000 1.000000
vt 0.875000 1.000000
vt 0.875000 0.750000
vt 0.875000 0.625000
vt 0.250000 0.250000
vt 0.750000 0.000000
vt 0.750000 0.125000
vt 0.625000 0.125000
vt 0.125000 0.000000
vt 0.625000 0.250000
vt 0.750000 0.250000
vt 0.625000 0.375000
vt 0.000000 0.625000
vt 0.000000 0.500000
vt 0.750000 0.500000
vt 0.625000 0.500000
vt 1.000000 0.250000
vt 0.875000 0.250000
vt 0.875000 0.125000
vt 0.500000 0.750000
vt 0.375000 0.750000
vt 0.375000 0.625000
vt 1.000000 0.125000
vt 0.875000 0.000000
vt 1.000000 0.000000
vt 0.000000 0.750000
vt 0.750000 0.625000
vt 0.625000 0.625000
vt 0.750000 1.000000
vt 0.000000 0.125000
vt 0.000000 0.000000
vt 0.375000 0.500000
vt 0.500000 0.500000
vt 0.875000 0.500000
vt 0.875000 0.375000
vt 1.000000 0.500000
vt 1.000000 0.875000
vt 1.000000 0.625000
vt 1.000000 0.750000
vt 0.625000 0.000000
vt 0.375000 1.000000
vt 0.000000 0.875000
vt 0.125000 0.500000
vt 0.000000 0.250000
vt 0.125000 0.250000
vt 0.125000 0.375000
vt 0.500000 0.625000
vt 0.000000 0.375000
vt 0.750000 0.375000
vt 1.000000 0.375000
vt 0.500000 0.875000
vn 0.0000 -1.0000 0.0000
vn 0.0000 -0.9630 0.2694
vn 0.0000 0.6723 0.7403
vn 0.0000 -0.5318 0.8469
vn 0.0000 1.0000 0.0000
usemtl Default_OBJ
s 1
f 1/1/1 2/2/1 3/3/1
f 4/4/1 5/5/1 6/6/2
f 7/7/3 8/8/4 9/9/3
f 1/1/1 10/10/1 11/11/2
f 12/12/4 13/13/4 11/11/2
f 14/14/4 15/15/4 16/16/2
f 17/17/2 14/14/4 16/16/2
f 18/18/5 19/19/5 20/20/5
f 12/12/4 21/21/2 16/16/2
f 22/22/1 23/23/1 24/24/1
f 25/25/1 26/26/1 27/27/1
f 28/28/3 19/19/5 9/9/3
f 29/29/1 30/30/1 27/27/1
f 31/31/5 32/32/5 20/20/5
f 33/33/5 19/19/5 34/34/5
f 23/23/1 35/35/1 24/24/1
f 36/36/5 37/37/5 38/38/3
f 39/39/1 22/22/1 24/24/1
f 40/40/3 41/41/5 42/42/3
f 43/43/1 44/44/1 3/3/1
f 45/45/5 46/46/3 42/42/3
f 47/47/5 48/48/5 49/49/5
f 50/50/4 51/51/2 52/52/2
f 53/53/5 47/47/5 49/49/5
f 54/54/5 55/55/5 49/49/5
f 50/50/4 28/28/3 9/9/3
f 12/12/4 40/40/3 42/42/3
f 56/56/1 29/29/1 27/27/1
f 45/45/5 57/57/5 58/58/3
f 59/59/5 18/18/5 20/20/5
f 60/60/1 61/61/1 24/24/1
f 62/62/2 63/63/4 52/52/2
f 46/46/3 63/63/4 42/42/3
f 64/64/5 45/45/5 65/65/5
f 66/66/5 64/64/5 65/65/5
f 67/67/5 31/31/5 20/20/5
f 68/68/5 69/69/5 34/34/5
f 57/57/5 19/19/5 58/58/3
f 70/70/3 36/36/5 38/38/3
f 37/37/5 41/41/5 38/38/3
f 71/71/2 4/4/1 6/6/2
f 5/5/1 30/30/1 6/6/2
f 13/13/4 63/63/4 11/11/2
f 15/15/4 12/12/4 16/16/2
f 51/51/2 30/30/1 52/52/2
f 32/32/5 59/59/5 20/20/5
f 1/1/1 62/62/2 52/52/2
f 72/72/1 56/56/1 27/27/1
f 44/44/1 73/73/1 3/3/1
f 48/48/5 41/41/5 49/49/5
f 74/74/1 75/75/1 76/76/1
f 77/77/4 63/63/4 58/58/3
f 10/10/1 35/35/1 11/11/2
f 78/78/1 74/74/1 76/76/1
f 44/44/1 78/78/1 76/76/1
f 73/73/1 1/1/1 3/3/1
f 79/79/5 41/41/5 65/65/5
f 2/2/1 30/30/1 3/3/1
f 80/80/5 66/66/5 65/65/5
f 75/75/1 35/35/1 76/76/1
f 69/69/5 67/67/5 20/20/5
f 21/21/2 35/35/1 16/16/2
f 19/19/5 33/33/5 20/20/5
f 33/33/5 69/69/5 20/20/5
f 69/69/5 33/33/5 34/34/5
f 35/35/1 10/10/1 76/76/1
f 10/10/1 1/1/1 76/76/1
f 1/1/1 73/73/1 76/76/1
f 73/73/1 44/44/1 76/76/1
f 63/63/4 62/62/2 11/11/2
f 62/62/2 1/1/1 11/11/2
f 41/41/5 48/48/5 65/65/5
f 48/48/5 47/47/5 65/65/5
f 30/30/1 2/2/1 52/52/2
f 2/2/1 1/1/1 52/52/2
f 35/35/1 75/75/1 24/24/1
f 75/75/1 74/74/1 24/24/1
f 30/30/1 29/29/1 3/3/1
f 29/29/1 56/56/1 3/3/1
f 41/41/5 37/37/5 49/49/5
f 37/37/5 36/36/5 49/49/5
f 35/35/1 23/23/1 16/16/2
f 23/23/1 22/22/1 16/16/2
f 30/30/1 5/5/1 27/27/1
f 5/5/1 4/4/1 27/27/1
f 19/19/5 18/18/5 9/9/3
f 18/18/5 59/59/5 9/9/3
f 19/19/5 28/28/3 58/58/3
f 28/28/3 50/50/4 58/58/3
f 35/35/1 21/21/2 11/11/2
f 21/21/2 12/12/4 11/11/2
f 41/41/5 79/79/5 42/42/3
f 79/79/5 45/45/5 42/42/3
f 45/45/5 79/79/5 65/65/5
f 74/74/1 60/60/1 24/24/1
f 47/47/5 80/80/5 65/65/5
f 56/56/1 43/43/1 3/3/1
f 66/66/5 68/68/5 34/34/5
f 63/63/4 46/46/3 58/58/3
f 46/46/3 45/45/5 58/58/3
f 45/45/5 64/64/5 34/34/5
f 64/64/5 66/66/5 34/34/5
f 19/19/5 57/57/5 34/34/5
f 57/57/5 45/45/5 34/34/5
f 63/63/4 13/13/4 42/42/3
f 13/13/4 12/12/4 42/42/3
f 12/12/4 15/15/4 38/38/3
f 15/15/4 14/14/4 38/38/3
f 41/41/5 40/40/3 38/38/3
f 40/40/3 12/12/4 38/38/3
f 63/63/4 77/77/4 52/52/2
f 77/77/4 50/50/4 52/52/2
f 50/50/4 77/77/4 58/58/3
f 26/26/1 72/72/1 27/27/1
f 55/55/5 53/53/5 49/49/5
f 36/36/5 54/54/5 49/49/5
f 14/14/4 70/70/3 38/38/3
f 22/22/1 17/17/2 16/16/2
f 61/61/1 39/39/1 24/24/1
f 4/4/1 25/25/1 27/27/1
f 8/8/4 71/71/2 6/6/2
f 59/59/5 7/7/3 9/9/3
f 30/30/1 51/51/2 6/6/2
f 51/51/2 50/50/4 6/6/2
f 50/50/4 81/81/4 6/6/2
f 81/81/4 8/8/4 6/6/2
f 8/8/4 81/81/4 9/9/3
f 81/81/4 50/50/4 9/9/3
